<svg xmlns="http://www.w3.org/2000/svg" xmlns:xlink="http://www.w3.org/1999/xlink" width="1080" zoomAndPan="magnify" viewBox="0 0 810 809.999993" height="1080" preserveAspectRatio="xMidYMid meet" version="1.0"><defs><clipPath id="db3c544ad8"><path d="M 109 107.285156 L 704 107.285156 L 704 700 L 109 700 Z M 109 107.285156 " clip-rule="nonzero"/></clipPath></defs><g clip-path="url(#db3c544ad8)"><path fill="#030c26" d="M 403.75 107.285156 C 461.15625 107.285156 512.257812 121.050781 557.058594 148.820312 C 601.863281 176.355469 636.863281 211.589844 662.296875 254.527344 C 687.734375 297.460938 701.265625 345.0625 703.132812 397.335938 C 705 449.605469 691.699219 500.941406 663.230469 551.109375 C 639.199219 592.644531 607.929688 625.546875 569.425781 650.28125 C 530.925781 675.015625 489.855469 690.417969 446.21875 696.71875 C 402.585938 702.785156 358.714844 699.285156 314.847656 685.75 C 270.976562 672.214844 231.308594 648.179688 196.539062 613.179688 C 157.335938 573.277344 131.203125 527.074219 118.136719 474.804688 C 105.066406 422.535156 106.234375 370.03125 121.402344 317.761719 C 127.9375 296.761719 138.667969 279.261719 153.605469 265.492188 C 168.539062 251.726562 185.339844 241.457031 204.238281 234.925781 C 223.140625 228.390625 242.742188 225.359375 263.042969 226.292969 C 283.34375 226.992188 302.246094 231.191406 319.746094 238.890625 C 337.246094 246.59375 351.949219 257.324219 363.847656 271.558594 C 375.75 285.792969 382.984375 303.0625 385.082031 323.363281 C 374.117188 315.429688 361.046875 311.230469 345.882812 310.761719 C 330.714844 310.296875 316.011719 313.5625 301.777344 320.5625 C 287.542969 327.5625 275.644531 338.0625 265.84375 352.296875 C 256.042969 366.53125 251.144531 384.035156 251.144531 405.269531 C 251.144531 441.667969 258.84375 471.773438 274.011719 495.804688 C 289.179688 519.839844 308.3125 537.808594 331.179688 549.710938 C 354.046875 561.609375 378.78125 567.675781 405.382812 567.675781 C 431.984375 567.675781 456.722656 561.609375 479.589844 549.242188 C 502.457031 536.875 521.589844 518.441406 536.757812 494.171875 C 551.925781 469.90625 559.625 439.570312 559.625 403.167969 C 559.625 374.699219 554.492188 349.730469 544.457031 328.03125 C 534.191406 306.328125 520.65625 288.128906 503.625 274.128906 C 486.589844 259.894531 466.753906 250.09375 444.121094 244.726562 C 421.484375 239.359375 397.683594 239.125 372.25 244.257812 C 361.28125 231.191406 347.980469 220.925781 332.347656 213.222656 C 316.714844 204.824219 299.914062 199.691406 281.710938 197.355469 C 263.511719 194.789062 245.308594 195.257812 227.109375 198.523438 C 208.90625 201.789062 191.871094 208.089844 175.773438 217.65625 C 204.941406 182.65625 238.542969 155.585938 277.277344 136.453125 C 315.78125 116.851562 358.015625 107.285156 403.75 107.285156 Z M 403.75 107.285156 " fill-opacity="1" fill-rule="nonzero"/></g></svg>