<svg xmlns="http://www.w3.org/2000/svg" xmlns:xlink="http://www.w3.org/1999/xlink" width="1080" zoomAndPan="magnify" viewBox="0 0 810 809.999993" height="1080" preserveAspectRatio="xMidYMid meet" version="1.0"><defs><clipPath id="acdd0206c2"><path d="M 189 58 L 620.886719 58 L 620.886719 752 L 189 752 Z M 189 58 " clip-rule="nonzero"/></clipPath></defs><g clip-path="url(#acdd0206c2)"><path fill="#000000" d="M 429.21875 594.453125 C 431.121094 635.0625 434.191406 668.570312 438.4375 694.980469 C 442.679688 721.390625 448.308594 735.5625 455.320312 737.496094 C 467.074219 740.296875 480.042969 733.199219 494.21875 716.195312 C 509.976562 696.921875 523.894531 676.394531 535.96875 654.617188 C 552.664062 625.445312 567.761719 595.46875 581.253906 564.683594 C 594.429688 534.027344 602.925781 514.449219 606.734375 505.957031 C 609.148438 506.460938 611.492188 507.183594 613.769531 508.125 C 616.210938 509.109375 618.5625 510.28125 620.820312 511.644531 C 618.476562 518.246094 613.28125 531 605.234375 549.90625 C 597.191406 568.808594 587.746094 589.335938 576.902344 611.484375 C 570.769531 623.769531 564.175781 636.003906 557.121094 648.179688 C 550.0625 660.355469 543.242188 671.929688 536.652344 682.90625 C 523.007812 704.152344 508.863281 721.390625 494.21875 734.609375 C 482.386719 745.917969 471.046875 751.574219 460.203125 751.574219 L 453.152344 750.222656 C 443.753906 748.296875 435.257812 742.386719 427.667969 732.492188 C 419.242188 721.160156 412.417969 708.925781 407.203125 695.796875 C 398.726562 673.648438 391.902344 646.523438 386.734375 614.421875 C 380.613281 625.304688 374.46875 635.195312 368.304688 644.09375 C 355.582031 662.996094 342.84375 677.875 330.085938 688.726562 C 317.332031 699.578125 304.59375 704.28125 291.871094 702.835938 C 285.792969 702.234375 279.835938 701.042969 273.996094 699.265625 C 268.15625 697.484375 262.546875 695.148438 257.167969 692.261719 C 246.769531 686.160156 237.550781 678.609375 229.519531 669.613281 C 214.417969 653.066406 203.347656 632.761719 196.304688 608.699219 C 191.234375 591.847656 188.871094 574.621094 189.21875 557.027344 C 189.21875 551.324219 189.449219 545.667969 189.902344 540.0625 C 192.703125 512.265625 199.296875 488.4375 209.6875 468.578125 C 220.074219 448.71875 232.296875 432.445312 246.351562 419.757812 C 272.730469 396.140625 301.015625 384.785156 331.203125 385.699219 C 349.636719 386.144531 364.503906 390.394531 375.804688 398.457031 C 377.234375 355.949219 380.53125 313.695312 385.6875 271.695312 C 392.730469 213.183594 403.125 165.03125 416.871094 127.238281 C 423.992188 107.023438 431.996094 90.765625 440.886719 78.46875 C 449.773438 66.167969 459.691406 59.5625 470.636719 58.652344 L 473.484375 58.652344 C 475.464844 58.601562 477.417969 58.785156 479.351562 59.203125 C 481.285156 59.621094 483.140625 60.261719 484.921875 61.121094 C 486.699219 61.984375 488.355469 63.042969 489.878906 64.300781 C 491.40625 65.558594 492.765625 66.976562 493.953125 68.558594 C 500.097656 75.621094 504.542969 85.75 507.285156 98.949219 C 512.429688 123.414062 513.152344 156.6875 509.453125 198.773438 C 504.621094 243.816406 497.074219 288.402344 486.820312 332.523438 C 473.410156 391.226562 456.1875 448.789062 435.152344 505.203125 C 432.351562 512.253906 429.773438 519.355469 427.417969 526.503906 C 427.597656 550.554688 428.199219 573.207031 429.21875 594.453125 Z M 238.417969 546.285156 C 236.929688 556.132812 236.207031 566.03125 236.253906 575.992188 C 236.257812 587.117188 236.980469 598.199219 238.417969 609.234375 C 239.628906 618.746094 241.65625 628.082031 244.503906 637.238281 C 247.351562 646.398438 250.972656 655.234375 255.371094 663.757812 C 263.859375 680.304688 276.082031 689.527344 292.035156 691.429688 C 302.871094 692.882812 313.9375 688.632812 325.234375 678.667969 C 336.535156 668.707031 348.101562 654.328125 359.9375 635.535156 C 367.4375 623.238281 375.214844 609.3125 383.269531 593.753906 C 382.832031 591.652344 382.605469 589.53125 382.585938 587.382812 C 377.277344 541.054688 374.707031 494.574219 374.871094 447.945312 L 374.871094 408.332031 C 365.957031 399.824219 354.179688 395.574219 339.535156 395.574219 C 318.757812 395.574219 299.207031 406.925781 280.886719 429.632812 C 270.886719 441.929688 262.164062 457.753906 254.71875 477.101562 C 247.273438 496.449219 241.84375 519.511719 238.417969 546.285156 Z M 470.085938 335.359375 C 480.464844 289.59375 488.242188 246.636719 493.417969 206.496094 C 498.597656 166.355469 499.542969 133.796875 496.253906 108.824219 C 494.820312 96.082031 491.976562 86.179688 487.71875 79.117188 C 483.464844 72.058594 477.589844 68.761719 470.101562 69.226562 C 466.304688 69.683594 462.78125 75.558594 459.535156 86.855469 C 455.347656 102.496094 452.046875 118.316406 449.636719 134.324219 C 443.9375 170.6875 438.964844 217.667969 434.71875 275.265625 C 430.476562 332.863281 428.125 390.917969 427.667969 449.429688 C 427.226562 461.738281 427.003906 473.769531 427.003906 485.523438 C 443.894531 436.195312 458.261719 386.140625 470.101562 335.359375 Z M 470.085938 335.359375 " fill-opacity="1" fill-rule="nonzero"/></g></svg>