<svg xmlns="http://www.w3.org/2000/svg" xmlns:xlink="http://www.w3.org/1999/xlink" width="1080" zoomAndPan="magnify" viewBox="0 0 810 809.999993" height="1080" preserveAspectRatio="xMidYMid meet" version="1.0"><defs><clipPath id="0089413244"><path d="M 73.480469 92.894531 L 728.980469 92.894531 L 728.980469 716.894531 L 73.480469 716.894531 Z M 73.480469 92.894531 " clip-rule="nonzero"/></clipPath></defs><g clip-path="url(#0089413244)"><path fill="#000000" d="M 717.691406 301.535156 C 682.226562 170.9375 574.9375 92.964844 430.683594 92.964844 L 73.484375 92.964844 L 80.53125 109.117188 C 110.804688 178.507812 179.300781 223.367188 255.027344 223.390625 L 352.289062 223.390625 L 353.089844 223.367188 C 356.78125 223.101562 370.445312 222.273438 390.933594 222.273438 C 410.636719 222.273438 430.71875 223.050781 450.535156 224.566406 L 452.484375 224.71875 C 528.371094 230.6875 632.339844 250.527344 696.589844 311.011719 L 697.414062 311.78125 C 697.75 312.105469 698.089844 312.410156 698.410156 312.742188 L 728.984375 343.191406 Z M 727.476562 452.046875 L 727.390625 453.300781 C 708.097656 616.019531 593.183594 717.09375 427.5 717.09375 L 199.621094 717.09375 L 199.621094 409.027344 L 211.148438 409.027344 C 277.867188 409.027344 332.140625 463.304688 332.140625 530.015625 L 332.140625 584.5625 L 433.066406 584.5625 C 482.773438 584.5625 524.628906 568.238281 554.132812 537.351562 C 584.152344 505.917969 600.015625 460.484375 600.015625 405.96875 L 600.015625 404.097656 C 600.015625 361.882812 590.734375 325.488281 572.417969 295.898438 L 555.324219 268.28125 L 586.007812 278.929688 C 624.082031 292.140625 654.964844 309.734375 677.792969 331.242188 C 711.152344 362.660156 727.867188 403.300781 727.476562 452.046875 " fill-opacity="1" fill-rule="nonzero"/></g></svg>