<svg xmlns="http://www.w3.org/2000/svg" xmlns:xlink="http://www.w3.org/1999/xlink" width="1080" zoomAndPan="magnify" viewBox="0 0 810 809.999993" height="1080" preserveAspectRatio="xMidYMid meet" version="1.0"><defs><clipPath id="e84100b3f5"><path d="M 96.121094 69.175781 L 714 69.175781 L 714 729 L 96.121094 729 Z M 96.121094 69.175781 " clip-rule="nonzero"/></clipPath></defs><g clip-path="url(#e84100b3f5)"><path fill="#000000" d="M 124.121094 69.460938 L 351.171875 69.460938 L 285.449219 133.730469 L 285.449219 342.355469 C 292.851562 343.664062 301.554688 344.675781 311.566406 345.257812 L 311.566406 138.519531 L 364.230469 86.289062 L 373.949219 94.992188 L 324.1875 144.320312 L 324.1875 345.691406 L 340.144531 347.144531 C 364.953125 349.464844 388.894531 350.480469 412.105469 350.480469 C 445.621094 350.480469 474.347656 348.886719 498.574219 345.691406 L 498.574219 123.574219 L 439.671875 69.460938 L 662.804688 69.460938 L 596.214844 133.730469 L 596.214844 637.015625 L 654.679688 689.246094 L 432.273438 689.246094 L 498.429688 632.808594 L 498.429688 427.808594 C 471.445312 434.191406 443.589844 437.53125 414.863281 437.53125 C 387.878906 437.53125 359.878906 436.078125 330.859375 433.175781 L 324.042969 432.742188 L 324.042969 637.015625 L 403.691406 728.707031 L 154.152344 728.707031 L 141.53125 715.648438 L 377.140625 715.648438 L 311.421875 643.6875 L 311.421875 421.570312 L 325.492188 422.585938 C 368 425.777344 398.757812 427.375 417.765625 427.375 C 448.667969 427.375 475.507812 423.167969 498.429688 414.75 L 498.429688 397.34375 C 468.105469 401.839844 432.851562 404.160156 392.664062 404.160156 C 371.046875 404.160156 355.378906 403.726562 345.367188 402.710938 L 296.621094 398.359375 C 294.734375 398.066406 290.964844 397.777344 285.449219 397.34375 L 285.449219 636.871094 L 347.253906 689.097656 L 124.121094 689.097656 L 188.828125 632.664062 L 188.828125 421.570312 C 161.84375 421.570312 140.226562 432.160156 124.121094 453.488281 L 113.964844 448.699219 C 132.679688 425.199219 157.632812 412.140625 188.828125 409.527344 L 188.828125 391.683594 C 152.703125 391.683594 124.265625 405.320312 103.375 432.742188 L 96.121094 427.953125 C 115.125 381.527344 146.027344 354.253906 188.828125 345.839844 L 188.828125 128.363281 Z M 682.972656 96.589844 L 633.644531 144.464844 L 633.644531 637.015625 L 713.875 728.707031 L 463.175781 728.707031 L 451.132812 715.648438 L 686.308594 715.648438 L 621.601562 642.671875 L 621.601562 139.535156 L 675.136719 86.433594 Z M 682.972656 96.589844 " fill-opacity="1" fill-rule="nonzero"/></g></svg>