<svg xmlns="http://www.w3.org/2000/svg" xmlns:xlink="http://www.w3.org/1999/xlink" width="1080" zoomAndPan="magnify" viewBox="0 0 810 809.999993" height="1080" preserveAspectRatio="xMidYMid meet" version="1.0"><defs><clipPath id="61b733b5d8"><path d="M 58 134.320312 L 751.726562 134.320312 L 751.726562 675 L 58 675 Z M 58 134.320312 " clip-rule="nonzero"/></clipPath></defs><path fill="#000000" d="M 165.773438 346.527344 C 165.121094 345.339844 164.367188 344.117188 164.238281 343.816406 C 162.15625 339.160156 160.753906 334.140625 160.03125 329.09375 C 158.046875 315.292969 160.578125 302.421875 165.84375 289.636719 C 167.429688 285.785156 169.167969 281.992188 170.839844 278.175781 C 171.042969 277.714844 171.902344 274.90625 172.554688 274.871094 C 173.03125 274.84375 173.363281 278.949219 173.40625 279.277344 C 174.0625 284.414062 174.867188 289.558594 175.894531 294.628906 C 178.75 308.738281 181.238281 323.328125 178.277344 337.652344 C 177.269531 342.523438 175.289062 349.074219 170.582031 351.875 C 167.695312 377.847656 156.308594 401.316406 148.46875 426.039062 C 149.585938 423.867188 150.769531 421.726562 152.011719 419.625 C 163.007812 401.046875 178.410156 387.09375 197.625 377.492188 C 201.78125 375.417969 205.972656 373.457031 210.234375 371.605469 C 210.722656 371.394531 213.742188 369.6875 214.183594 370.199219 C 214.835938 370.953125 212.402344 375.28125 212.082031 376.011719 C 209.359375 382.25 206.414062 388.394531 203.664062 394.628906 C 194.851562 414.632812 179.015625 429.808594 160.691406 441.140625 C 156.101562 443.980469 148.554688 449.429688 142.496094 449.816406 C 138.476562 472.796875 139.628906 495.8125 144.546875 518.511719 C 144.667969 515.386719 144.855469 512.265625 145.101562 509.15625 C 146.128906 496.042969 148.066406 478.824219 156.304688 467.507812 C 155.644531 466.847656 155.082031 466.058594 154.671875 465.15625 C 152.828125 461.128906 154.597656 456.359375 158.625 454.519531 C 162.648438 452.675781 167.414062 454.445312 169.253906 458.476562 C 171.097656 462.503906 169.328125 467.269531 165.300781 469.113281 C 163.960938 469.726562 162.539062 469.941406 161.167969 469.804688 C 152.898438 480.277344 151.339844 497.007812 150.351562 509.566406 C 150.21875 511.253906 150.105469 512.941406 150.003906 514.636719 C 153.324219 498.335938 159.589844 482.199219 170.003906 469.164062 C 171.421875 467.386719 179.136719 456.476562 182.332031 457.433594 C 183.160156 457.679688 182.140625 462.050781 182.070312 462.65625 C 181.40625 468.417969 181.359375 474.269531 181.390625 480.066406 C 181.496094 500.074219 176.722656 517.066406 164.6875 533.496094 C 161.214844 538.234375 155.675781 541.375 152.167969 545.902344 C 155.710938 556.90625 159.511719 567.8125 163.105469 578.78125 C 163.585938 577.195312 164.078125 575.613281 164.582031 574.035156 C 167.605469 564.5625 171.75 555.644531 177.632812 547.613281 C 177.773438 547.421875 177.941406 547.253906 178.117188 547.109375 C 177.984375 546.882812 177.863281 546.648438 177.75 546.402344 C 175.90625 542.375 177.675781 537.605469 181.703125 535.761719 C 185.726562 533.917969 190.488281 535.691406 192.332031 539.71875 C 194.175781 543.75 192.40625 548.511719 188.378906 550.355469 C 186.292969 551.3125 184.007812 551.296875 182.035156 550.496094 C 181.988281 550.578125 181.9375 550.65625 181.882812 550.730469 C 176.339844 558.300781 172.445312 566.707031 169.601562 575.636719 C 168.609375 578.75 167.65625 581.882812 166.761719 585.023438 C 166.628906 585.488281 166.726562 586.21875 166.734375 586.875 C 166.738281 587.789062 166.671875 588.640625 166.496094 589.238281 L 166.46875 589.324219 C 169.730469 599.867188 172.660156 610.511719 174.847656 621.402344 C 176.21875 628.222656 177.136719 635.136719 178.058594 642.03125 C 178.222656 643.269531 178.933594 645.753906 178.960938 647.710938 C 178.980469 649.128906 178.664062 650.351562 178.078125 651.214844 C 177.261719 652.414062 175.621094 652.730469 174.417969 651.914062 C 173.257812 651.117188 172.925781 649.554688 173.648438 648.367188 C 173.652344 648.199219 173.667969 647.128906 173.566406 646.484375 C 173.339844 645.035156 172.953125 643.578125 172.835938 642.730469 C 171.929688 635.949219 171.03125 629.152344 169.6875 622.441406 C 167.757812 612.835938 165.242188 603.417969 162.429688 594.097656 C 160.953125 592.902344 159.304688 591.710938 159.164062 591.613281 C 152.226562 586.765625 144.121094 583.128906 136.242188 580.144531 C 117.714844 573.128906 104.585938 562.769531 98 543.535156 C 96.996094 540.605469 92.542969 529.804688 94.605469 526.621094 C 94.75 526.402344 98.589844 529.425781 98.871094 529.621094 C 103.789062 533.0625 108.640625 536.566406 113.425781 540.195312 C 124.371094 548.5 134.796875 557.195312 145.21875 566.125 C 149.40625 569.71875 153.4375 572.933594 156.882812 576.691406 C 152.636719 563.890625 148.164062 551.148438 144.242188 538.210938 C 139.957031 524.097656 136.976562 509.824219 135.621094 495.46875 C 134.082031 495.144531 131.402344 494.964844 130.40625 494.648438 C 125.675781 493.136719 121.164062 491.035156 116.867188 488.554688 C 98.625 478.027344 85.734375 459.914062 79.042969 440.175781 C 76.863281 433.746094 74.960938 427.15625 73.761719 420.472656 C 73.59375 419.558594 72.445312 415.179688 73.757812 414.515625 C 74.402344 414.1875 77.191406 418.625 77.546875 419.070312 C 81.441406 423.945312 86.167969 427.96875 90.625 432.289062 C 104.652344 445.882812 118.894531 460.292969 129.59375 476.875 C 128.742188 473.4375 127.875 470.003906 126.925781 466.59375 C 122.597656 451.070312 117.730469 436.238281 108.148438 423.152344 C 108.121094 423.113281 108.089844 423.070312 108.0625 423.023438 C 104.265625 424.214844 100.085938 422.417969 98.386719 418.703125 C 96.542969 414.675781 98.316406 409.910156 102.339844 408.0625 C 106.367188 406.21875 111.125 407.992188 112.96875 412.023438 C 114.183594 414.675781 113.828125 417.652344 112.292969 419.902344 C 112.328125 419.945312 112.367188 419.988281 112.398438 420.035156 C 122.363281 433.648438 127.5 449.035156 132 465.179688 C 133 468.777344 133.914062 472.398438 134.808594 476.027344 C 134.960938 463.382812 136.480469 450.707031 139.585938 438.054688 C 142.019531 428.144531 145.347656 418.535156 148.820312 408.992188 C 148.734375 408.320312 148.699219 406.671875 148.480469 405.996094 C 147.753906 403.804688 146.898438 401.628906 145.902344 399.542969 C 143.066406 393.609375 139.371094 388.113281 135.675781 382.683594 C 123.554688 364.902344 114.890625 348.714844 113.195312 326.707031 C 112.8125 321.742188 112.65625 316.703125 113.152344 311.742188 C 113.210938 311.140625 113.277344 307.292969 114 306.960938 C 114.3125 306.816406 117.363281 312.0625 117.589844 312.398438 C 121.507812 318.160156 125.808594 323.6875 130.011719 329.242188 C 139.710938 342.0625 143.792969 356.40625 147.847656 371.726562 C 148.992188 376.050781 150.105469 380.066406 151.039062 383.964844 C 151.347656 379.90625 151.539062 375.839844 151.515625 371.765625 C 151.433594 354.871094 149.613281 338.136719 144.386719 322.050781 C 141.339844 322.058594 138.417969 320.316406 137.070312 317.367188 C 135.226562 313.339844 136.996094 308.574219 141.023438 306.726562 C 145.046875 304.882812 149.808594 306.65625 151.652344 310.683594 C 153.21875 314.105469 152.175781 318.0625 149.359375 320.304688 C 154.785156 336.941406 156.695312 354.257812 156.78125 371.738281 C 156.8125 377.734375 156.410156 383.714844 155.828125 389.675781 C 160.6875 375.726562 164.78125 361.582031 165.773438 346.527344 Z M 165.773438 346.527344 " fill-opacity="1" fill-rule="evenodd"/><g clip-path="url(#61b733b5d8)"><path fill="#000000" d="M 175.835938 593.765625 L 135.445312 593.765625 C 133.746094 609.777344 130.773438 621.863281 126.53125 630.03125 C 117.300781 649.066406 94.488281 658.582031 58.058594 658.582031 L 58.058594 674.898438 L 250.449219 674.898438 L 250.449219 658.582031 C 240.652344 658.582031 231.171875 657.765625 221.917969 656.136719 L 215.40625 655.320312 C 209.40625 654.230469 206.152344 653.414062 205.613281 652.871094 C 196.386719 650.152344 188.773438 641.453125 182.800781 626.769531 C 180.082031 618.066406 177.902344 608.277344 176.261719 597.402344 C 176.121094 596.199219 175.976562 594.988281 175.835938 593.765625 Z M 137.144531 274.863281 L 173.828125 274.863281 L 173.828125 228.679688 L 377.621094 674.898438 L 388.207031 674.898438 L 597.71875 209.917969 L 597.71875 574.558594 C 597.71875 601.207031 595.824219 619.425781 592 629.214844 C 587.671875 640.09375 580.878906 647.160156 571.621094 650.425781 C 564.007812 653.6875 557.496094 655.589844 552.0625 656.136719 C 543.910156 657.765625 534.683594 658.582031 524.351562 658.582031 L 524.351562 674.898438 L 751.78125 674.898438 L 751.78125 658.582031 C 742.554688 658.582031 734.121094 657.765625 726.503906 656.136719 C 718.890625 655.046875 711.84375 653.414062 705.332031 651.242188 C 698.796875 649.066406 693.359375 642.539062 689.03125 631.664062 C 684.132812 620.242188 681.671875 601.207031 681.671875 574.558594 L 681.671875 225.417969 C 681.671875 203.121094 684.132812 186.804688 689.03125 176.472656 C 692.824219 166.683594 698.257812 160.429688 705.332031 157.710938 C 711.304688 155.535156 718.355469 153.632812 726.503906 152 C 728.148438 152 731.402344 151.457031 736.300781 150.371094 C 742.273438 149.824219 747.453125 149.28125 751.78125 148.738281 L 751.78125 134.871094 L 588.746094 134.871094 L 408.585938 547.640625 L 221.097656 135.6875 L 58.058594 134.871094 L 58.058594 150.371094 C 80.363281 152.542969 97.742188 156.078125 110.253906 160.972656 C 120.558594 166.414062 127.917969 173.210938 132.246094 181.367188 C 135.503906 188.4375 137.144531 199.585938 137.144531 214.8125 Z M 137.144531 274.863281 " fill-opacity="1" fill-rule="nonzero"/></g></svg>