<svg xmlns="http://www.w3.org/2000/svg" xmlns:xlink="http://www.w3.org/1999/xlink" width="1080" zoomAndPan="magnify" viewBox="0 0 810 809.999993" height="1080" preserveAspectRatio="xMidYMid meet" version="1.0"><defs><clipPath id="1bfcc1b5fc"><path d="M 90.816406 101 L 719 101 L 719 729 L 90.816406 729 Z M 90.816406 101 " clip-rule="nonzero"/></clipPath></defs><g clip-path="url(#1bfcc1b5fc)"><path fill="#000000" d="M 644.585938 240.859375 C 642.605469 238.878906 640.226562 237.03125 638.113281 235.183594 C 635.871094 232.671875 633.757812 230.03125 631.378906 227.65625 C 629.398438 225.675781 627.023438 223.828125 624.910156 221.976562 C 622.667969 219.46875 620.554688 216.828125 618.175781 214.453125 C 616.195312 212.472656 613.820312 210.621094 611.707031 208.773438 C 609.460938 206.265625 607.351562 203.625 604.972656 201.25 C 602.992188 199.269531 600.617188 197.417969 598.503906 195.570312 C 596.257812 193.0625 594.144531 190.421875 591.769531 188.042969 C 589.789062 186.0625 587.410156 184.214844 585.300781 182.367188 C 583.054688 179.859375 580.941406 177.21875 578.566406 174.839844 C 529.449219 125.988281 459.597656 101.296875 371.003906 101.296875 C 284.253906 101.296875 215.199219 126.515625 165.550781 176.027344 C 116.035156 225.675781 90.816406 294.996094 90.816406 382.140625 C 90.816406 444.066406 103.492188 496.882812 128.316406 539 C 141.257812 561.050781 156.574219 580.066406 173.871094 596.042969 C 178.09375 600.664062 182.585938 605.019531 187.074219 609.246094 C 191.296875 613.867188 195.789062 618.222656 200.277344 622.449219 C 204.503906 627.070312 208.992188 631.425781 213.480469 635.652344 C 217.707031 640.273438 222.195312 644.632812 226.683594 648.855469 C 246.09375 669.984375 268.539062 686.75 293.761719 699.03125 C 333.503906 718.308594 383.675781 728.210938 442.960938 728.210938 C 501.851562 728.210938 552.15625 716.722656 592.429688 694.144531 C 633.359375 671.304688 665.050781 638.820312 686.703125 597.625 C 707.960938 557.222656 718.789062 505.59375 718.789062 444.066406 C 718.789062 358.109375 693.835938 289.714844 644.585938 240.859375 Z M 448.113281 376.066406 C 448.113281 436.277344 436.890625 462.15625 427.515625 473.378906 C 414.839844 488.429688 396.617188 495.824219 371.925781 495.824219 C 369.683594 495.824219 367.4375 495.691406 365.324219 495.5625 C 362.816406 482.09375 361.496094 466.511719 361.496094 448.820312 C 361.496094 406.039062 368.890625 374.746094 383.015625 358.375 C 396.617188 342.527344 413.648438 335.132812 436.757812 335.132812 C 439.660156 335.132812 442.300781 335.664062 445.074219 335.792969 C 447.054688 347.546875 448.113281 361.015625 448.113281 376.066406 Z M 448.113281 376.066406 " fill-opacity="1" fill-rule="nonzero"/></g><path fill="#ffffff" d="M 117.226562 382.140625 C 117.226562 301.859375 139.539062 239.40625 184.300781 194.777344 C 228.929688 150.019531 291.25 127.703125 371.003906 127.703125 C 452.734375 127.703125 515.847656 149.621094 560.082031 193.589844 C 604.3125 237.558594 626.496094 298.957031 626.496094 378.179688 C 626.496094 435.617188 616.855469 482.753906 597.445312 519.460938 C 578.167969 556.164062 550.175781 584.816406 513.601562 605.285156 C 477.027344 625.75 431.476562 635.917969 377.074219 635.917969 C 321.621094 635.917969 275.804688 627.070312 239.492188 609.378906 C 203.183594 591.683594 173.738281 563.824219 151.160156 525.53125 C 128.449219 487.375 117.226562 439.578125 117.226562 382.140625 Z M 269.070312 382.800781 C 269.070312 432.445312 278.3125 468.097656 296.664062 489.75 C 315.148438 511.40625 340.238281 522.230469 371.925781 522.230469 C 404.539062 522.230469 429.757812 511.667969 447.714844 490.410156 C 465.542969 469.152344 474.519531 431.125 474.519531 376.066406 C 474.519531 329.851562 465.144531 296.050781 446.527344 274.660156 C 427.910156 253.269531 402.558594 242.707031 370.605469 242.707031 C 339.972656 242.707031 315.414062 253.535156 296.929688 275.191406 C 278.445312 296.84375 269.070312 332.757812 269.070312 382.800781 Z M 269.070312 382.800781 " fill-opacity="1" fill-rule="nonzero"/></svg>