<svg xmlns="http://www.w3.org/2000/svg" xmlns:xlink="http://www.w3.org/1999/xlink" width="1080" zoomAndPan="magnify" viewBox="0 0 810 809.999993" height="1080" preserveAspectRatio="xMidYMid meet" version="1.0"><defs><clipPath id="4be585186d"><path d="M 145.65625 81 L 664.65625 81 L 664.65625 723 L 145.65625 723 Z M 145.65625 81 " clip-rule="nonzero"/></clipPath></defs><g clip-path="url(#4be585186d)"><path fill="#000000" d="M 602.140625 95.679688 C 586.375 117.015625 573.738281 139.171875 564.222656 162.277344 C 545.738281 207.945312 533.371094 235.804688 527.253906 246.136719 L 524.941406 248.851562 C 523.71875 245.457031 522.769531 242.875 522.226562 241.105469 C 513.664062 213.789062 506.730469 194.761719 501.292969 184.160156 C 495.859375 173.558594 487.566406 163.363281 476.695312 153.578125 C 448.96875 128.976562 417.570312 116.609375 382.234375 116.609375 C 349.75 116.609375 322.566406 125.714844 301.09375 143.792969 C 279.484375 161.867188 268.746094 184.566406 268.746094 212.019531 C 268.746094 263.125 307.210938 297.917969 384.136719 316.539062 L 461.199219 335.292969 C 571.019531 361.796875 625.792969 419.695312 625.792969 509.128906 C 625.792969 559.007812 607.035156 600.871094 569.523438 634.847656 C 532.011719 668.691406 485.527344 685.679688 430.210938 685.679688 C 395.554688 685.679688 356.816406 680.378906 313.871094 669.777344 L 260.457031 656.59375 C 238.84375 651.429688 221.039062 648.847656 207.042969 648.847656 C 188.558594 648.847656 169.394531 654.828125 149.550781 666.652344 L 145.878906 660.265625 C 183.527344 603.453125 210.03125 549.222656 225.253906 497.847656 L 233.410156 500.15625 C 239.796875 547.863281 258.960938 584.96875 290.898438 611.472656 C 322.839844 637.972656 364.699219 651.15625 416.347656 651.15625 C 457.121094 651.15625 489.46875 641.78125 513.527344 622.886719 C 537.582031 603.996094 549.542969 578.578125 549.542969 546.777344 C 549.542969 509.945312 532.828125 479.636719 499.390625 455.578125 C 475.335938 438.589844 426.132812 422.6875 351.652344 408.144531 C 294.160156 396.863281 252.574219 378.242188 226.613281 352.011719 C 200.789062 325.917969 187.878906 289.492188 187.878906 243.007812 C 187.878906 195.03125 205.136719 156.023438 239.660156 125.988281 C 274.183594 96.085938 319.035156 81 374.488281 81 C 410.097656 81 451.550781 87.386719 498.984375 100.164062 C 521.136719 106.28125 537.582031 109.269531 548.183594 109.269531 C 563.136719 109.269531 579.308594 104.105469 596.976562 93.777344 Z M 602.140625 386.667969 C 643.460938 417.929688 664.117188 460.878906 664.117188 515.246094 C 664.117188 573.28125 641.558594 622.480469 596.570312 662.847656 C 551.582031 703.078125 496.808594 723.328125 432.386719 723.328125 C 399.496094 723.328125 369.867188 719.929688 343.5 713.269531 L 270.511719 695.464844 C 253.523438 691.253906 235.175781 689.078125 215.738281 689.078125 C 198.34375 689.078125 182.441406 692.613281 167.898438 699.542969 L 162.460938 686.359375 C 178.226562 679.019531 194.402344 675.351562 210.847656 675.351562 C 229.058594 675.351562 249.855469 678.070312 273.367188 683.503906 L 343.632812 700.359375 C 371.632812 707.019531 401.125 710.417969 432.113281 710.417969 C 492.867188 710.417969 544.652344 690.980469 587.464844 652.246094 C 630.140625 613.511719 651.613281 566.621094 651.613281 511.574219 C 651.613281 465.09375 635.167969 424.316406 602.414062 389.386719 L 602.414062 386.667969 Z M 220.359375 370.222656 L 235.855469 378.921875 C 245.914062 396.863281 275.269531 411.8125 323.925781 423.636719 L 397.320312 441.851562 C 447.199219 454.355469 480.363281 465.09375 496.945312 474.0625 C 513.527344 483.03125 525.351562 496.625 532.28125 514.835938 L 529.15625 516.601562 C 515.429688 500.835938 500.613281 489.285156 484.714844 481.945312 C 468.8125 474.605469 438.09375 465.636719 392.835938 455.035156 C 327.1875 439.8125 283.015625 426.628906 260.589844 415.621094 C 238.03125 404.472656 224.574219 389.386719 220.359375 370.222656 Z M 277.308594 517.960938 C 288.589844 572.734375 318.625 611.472656 367.554688 634.304688 L 367.554688 637.972656 C 311.015625 621.527344 276.765625 582.386719 264.941406 520.273438 Z M 497.21875 205.496094 C 463.78125 169.886719 427.902344 152.082031 389.574219 152.082031 C 366.46875 152.082031 347.304688 158.742188 332.082031 172.199219 C 316.859375 185.519531 309.25 202.644531 309.25 223.300781 C 309.25 245.863281 324.605469 268.96875 355.324219 292.617188 L 358.992188 294.929688 L 356.683594 298.597656 C 316.585938 280.65625 296.472656 254.699219 296.472656 220.582031 C 296.472656 196.796875 305.035156 177.5 322.023438 162.683594 C 339.011719 147.734375 361.304688 140.394531 388.621094 140.394531 C 414.71875 140.394531 437.6875 145.964844 457.257812 156.976562 C 476.828125 168.121094 491.238281 183.613281 500.34375 203.730469 Z M 630.414062 114.707031 L 626.335938 121.503906 C 613.832031 142.433594 603.230469 162.546875 594.394531 181.710938 C 573.058594 226.425781 561.097656 251.300781 558.378906 256.464844 L 556.066406 259.589844 L 545.058594 254.96875 L 546.824219 250.890625 C 555.660156 230.777344 568.4375 204.679688 585.152344 172.46875 L 616.140625 112.261719 L 618.453125 108.589844 Z M 630.414062 114.707031 " fill-opacity="1" fill-rule="nonzero"/></g></svg>