<svg xmlns="http://www.w3.org/2000/svg" xmlns:xlink="http://www.w3.org/1999/xlink" width="1080" zoomAndPan="magnify" viewBox="0 0 810 809.999993" height="1080" preserveAspectRatio="xMidYMid meet" version="1.0"><defs><clipPath id="8781084db5"><path d="M 60.339844 134.871094 L 749.589844 134.871094 L 749.589844 674.871094 L 60.339844 674.871094 Z M 60.339844 134.871094 " clip-rule="nonzero"/></clipPath></defs><g clip-path="url(#8781084db5)"><path fill="#000000" d="M 60.617188 134.871094 C 290.203125 135.351562 519.792969 135.832031 749.382812 136.3125 C 748.902344 188.382812 748.421875 240.292969 747.941406 292.363281 C 737.207031 293.164062 726.472656 293.804688 715.738281 294.605469 C 682.410156 421.175781 649.246094 547.746094 615.921875 674.316406 C 560.96875 674.636719 505.855469 674.796875 450.902344 675.117188 C 436.640625 628.816406 422.382812 582.511719 408.121094 536.371094 C 395.144531 580.589844 382.167969 624.96875 369.03125 669.191406 C 313.4375 669.671875 258 670.152344 202.40625 670.632812 C 168.441406 543.261719 134.316406 416.050781 100.347656 288.679688 C 88.332031 288.199219 76.316406 287.71875 64.300781 287.238281 C 63.019531 236.449219 61.738281 185.660156 60.617188 134.871094 Z M 60.617188 134.871094 " fill-opacity="1" fill-rule="nonzero"/></g><path fill="#ffffff" d="M 73.273438 149.132812 C 294.851562 149.613281 516.589844 150.253906 738.167969 150.734375 C 738.488281 194.472656 738.648438 238.210938 738.96875 282.109375 C 727.433594 282.109375 715.898438 282.109375 704.519531 282.109375 C 670.234375 408.359375 635.949219 534.769531 601.664062 661.019531 C 553.4375 661.5 505.054688 661.980469 456.828125 662.460938 C 439.523438 605.425781 422.382812 548.386719 405.078125 491.351562 C 390.5 546.945312 376.078125 602.378906 361.5 657.976562 C 311.03125 657.171875 260.40625 656.53125 209.9375 655.730469 C 176.292969 528.839844 142.804688 402.109375 109.320312 275.21875 C 98.105469 274.898438 86.730469 274.738281 75.515625 274.417969 C 74.875 232.761719 74.074219 190.945312 73.273438 149.132812 Z M 73.273438 149.132812 " fill-opacity="1" fill-rule="nonzero"/><path fill="#000000" d="M 97.304688 257.917969 C 95.863281 227.476562 94.261719 196.875 92.820312 166.433594 C 153.378906 165.953125 213.941406 165.472656 274.34375 164.992188 C 273.382812 196.554688 272.421875 227.957031 271.300781 259.519531 C 257.839844 259.519531 244.222656 259.519531 230.765625 259.519531 C 248.707031 325.046875 266.8125 390.574219 284.757812 456.101562 C 304.304688 392.015625 323.851562 328.089844 343.234375 264.003906 C 331.21875 263.042969 319.203125 262.082031 307.1875 260.960938 C 308.628906 231.960938 310.230469 202.964844 311.671875 173.964844 C 375.757812 173.003906 439.683594 172.042969 503.773438 170.921875 C 503.773438 198.476562 503.773438 225.875 503.773438 253.429688 C 494.800781 253.429688 485.828125 253.429688 476.695312 253.429688 C 493.199219 317.035156 509.699219 380.480469 526.203125 444.085938 C 544.144531 382.566406 562.25 321.042969 580.195312 259.519531 C 569.621094 258.558594 559.207031 257.597656 548.632812 256.476562 C 547.671875 226.035156 546.710938 195.433594 545.585938 164.992188 C 604.066406 165.472656 662.707031 165.953125 721.183594 166.433594 C 719.742188 195.914062 718.140625 225.394531 716.699219 255.03125 C 706.125 254.070312 695.710938 253.109375 685.136719 251.988281 C 652.132812 379.039062 619.125 506.089844 586.121094 633.140625 C 549.113281 635.0625 512.101562 637.148438 475.09375 639.070312 C 454.105469 557.519531 433.117188 475.96875 412.128906 394.421875 C 388.578125 474.527344 365.183594 554.476562 341.632812 634.582031 C 303.664062 635.542969 265.53125 636.507812 227.558594 637.628906 C 194.554688 511.539062 161.550781 385.449219 128.546875 259.519531 C 118.292969 259.039062 107.878906 258.558594 97.304688 257.917969 Z M 97.304688 257.917969 " fill-opacity="1" fill-rule="nonzero"/><path fill="#000000" d="M 249.027344 277.144531 C 261.527344 308.546875 274.183594 340.109375 286.679688 371.507812 C 297.574219 340.109375 308.46875 308.707031 319.363281 277.304688 C 295.972656 277.304688 272.421875 277.144531 249.027344 277.144531 Z M 285.238281 351.484375 C 277.386719 329.214844 269.535156 306.941406 261.6875 284.671875 C 276.585938 284.671875 291.324219 284.671875 306.226562 284.832031 C 299.175781 307.101562 292.289062 329.375 285.238281 351.484375 Z M 285.238281 351.484375 " fill-opacity="1" fill-rule="nonzero"/><path fill="#000000" d="M 493.359375 276.824219 C 505.214844 308.386719 517.070312 339.949219 528.925781 371.347656 C 539.339844 339.789062 549.914062 308.386719 560.328125 276.984375 C 537.898438 276.984375 515.628906 276.824219 493.359375 276.824219 Z M 527.484375 351.484375 C 520.113281 329.214844 512.582031 306.78125 505.375 284.511719 C 519.472656 284.511719 533.570312 284.511719 547.832031 284.511719 C 540.941406 306.78125 534.210938 329.050781 527.484375 351.484375 Z M 527.484375 351.484375 " fill-opacity="1" fill-rule="nonzero"/></svg>