<svg xmlns="http://www.w3.org/2000/svg" xmlns:xlink="http://www.w3.org/1999/xlink" width="1080" zoomAndPan="magnify" viewBox="0 0 810 809.999993" height="1080" preserveAspectRatio="xMidYMid meet" version="1.0"><path fill="#000000" d="M 315.121094 723.820312 L 315.121094 289.988281 L 612.527344 289.988281 L 612.527344 289.992188 C 612.527344 330.523438 579.667969 363.382812 539.136719 363.382812 L 402.710938 363.382812 L 402.710938 466.066406 L 583.820312 466.066406 C 583.820312 506.597656 550.960938 539.457031 510.429688 539.457031 L 402.710938 539.457031 L 402.710938 636.226562 C 402.710938 684.605469 363.496094 723.820312 315.121094 723.820312 " fill-opacity="1" fill-rule="nonzero"/><path fill="#000000" d="M 280.367188 261.386719 C 421.625 148.167969 623.933594 162.589844 747.953125 289.277344 C 741.652344 279.589844 734.824219 270.121094 727.445312 260.914062 C 606.847656 110.449219 387.109375 86.238281 236.644531 206.832031 C 86.179688 327.425781 61.96875 547.167969 182.566406 697.632812 C 189.945312 706.839844 197.695312 715.5625 205.785156 723.820312 C 109.136719 575.195312 139.113281 374.605469 280.367188 261.386719 " fill-opacity="1" fill-rule="nonzero"/></svg>